<mxfile host="app.diagrams.net" agent="Mozilla/5.0 (Windows NT 10.0; Win64; x64) AppleWebKit/537.36 (KHTML, like Gecko) Chrome/132.0.0.0 Safari/537.36" version="26.0.5">
  <diagram name="第 1 页" id="GLsD8rg-Lw0DA4X0WP-M">
    <mxGraphModel dx="984" dy="611" grid="0" gridSize="10" guides="1" tooltips="1" connect="1" arrows="1" fold="1" page="1" pageScale="1" pageWidth="827" pageHeight="1169" math="0" shadow="0">
      <root>
        <mxCell id="0" />
        <mxCell id="1" parent="0" />
        <mxCell id="XhqmdAoiVOFkfKMtNI7h-41" value="" style="ellipse;shape=cloud;whiteSpace=wrap;html=1;" vertex="1" parent="1">
          <mxGeometry x="310" y="305" width="68" height="40" as="geometry" />
        </mxCell>
        <mxCell id="XhqmdAoiVOFkfKMtNI7h-38" value="" style="rounded=0;whiteSpace=wrap;html=1;dashed=1;" vertex="1" parent="1">
          <mxGeometry x="150" y="300" width="130" height="110" as="geometry" />
        </mxCell>
        <mxCell id="XhqmdAoiVOFkfKMtNI7h-32" value="" style="rounded=0;whiteSpace=wrap;html=1;dashed=1;" vertex="1" parent="1">
          <mxGeometry x="314" y="230" width="296" height="190" as="geometry" />
        </mxCell>
        <mxCell id="XhqmdAoiVOFkfKMtNI7h-19" value="" style="rounded=0;whiteSpace=wrap;html=1;dashed=1;" vertex="1" parent="1">
          <mxGeometry x="314" y="100" width="286" height="110" as="geometry" />
        </mxCell>
        <mxCell id="XhqmdAoiVOFkfKMtNI7h-7" value="" style="rounded=0;whiteSpace=wrap;html=1;dashed=1;" vertex="1" parent="1">
          <mxGeometry x="90" y="60" width="160" height="210" as="geometry" />
        </mxCell>
        <mxCell id="XhqmdAoiVOFkfKMtNI7h-1" value="Layer-1交易数据" style="rounded=0;whiteSpace=wrap;html=1;" vertex="1" parent="1">
          <mxGeometry x="110" y="200" width="120" height="60" as="geometry" />
        </mxCell>
        <mxCell id="XhqmdAoiVOFkfKMtNI7h-2" value="Layer-2交易数据" style="rounded=0;whiteSpace=wrap;html=1;" vertex="1" parent="1">
          <mxGeometry x="110" y="70" width="120" height="60" as="geometry" />
        </mxCell>
        <mxCell id="XhqmdAoiVOFkfKMtNI7h-8" value="输入" style="text;html=1;align=center;verticalAlign=middle;whiteSpace=wrap;rounded=0;fontSize=14;" vertex="1" parent="1">
          <mxGeometry x="140" y="30" width="60" height="30" as="geometry" />
        </mxCell>
        <mxCell id="XhqmdAoiVOFkfKMtNI7h-10" value="解析原始交易记录" style="rounded=1;whiteSpace=wrap;html=1;" vertex="1" parent="1">
          <mxGeometry x="322" y="130" width="120" height="60" as="geometry" />
        </mxCell>
        <mxCell id="XhqmdAoiVOFkfKMtNI7h-11" value="" style="endArrow=classic;html=1;rounded=0;dashed=1;" edge="1" parent="1">
          <mxGeometry width="50" height="50" relative="1" as="geometry">
            <mxPoint x="163" y="200" as="sourcePoint" />
            <mxPoint x="163" y="130" as="targetPoint" />
          </mxGeometry>
        </mxCell>
        <mxCell id="XhqmdAoiVOFkfKMtNI7h-12" value="" style="endArrow=classic;html=1;rounded=0;dashed=1;" edge="1" parent="1">
          <mxGeometry width="50" height="50" relative="1" as="geometry">
            <mxPoint x="174" y="130" as="sourcePoint" />
            <mxPoint x="174" y="200" as="targetPoint" />
          </mxGeometry>
        </mxCell>
        <mxCell id="XhqmdAoiVOFkfKMtNI7h-13" value="" style="shape=flexArrow;endArrow=classic;html=1;rounded=0;strokeColor=default;align=center;verticalAlign=middle;fontFamily=Helvetica;fontSize=11;fontColor=default;labelBackgroundColor=default;" edge="1" parent="1">
          <mxGeometry width="50" height="50" relative="1" as="geometry">
            <mxPoint x="253" y="159.5" as="sourcePoint" />
            <mxPoint x="313" y="159.5" as="targetPoint" />
          </mxGeometry>
        </mxCell>
        <mxCell id="XhqmdAoiVOFkfKMtNI7h-14" value="桥合约" style="text;html=1;align=center;verticalAlign=middle;whiteSpace=wrap;rounded=0;fontSize=14;" vertex="1" parent="1">
          <mxGeometry x="170" y="150" width="60" height="30" as="geometry" />
        </mxCell>
        <mxCell id="XhqmdAoiVOFkfKMtNI7h-15" value="RPC URL" style="text;html=1;align=center;verticalAlign=middle;whiteSpace=wrap;rounded=0;fontSize=11;" vertex="1" parent="1">
          <mxGeometry x="234" y="122" width="100" height="30" as="geometry" />
        </mxCell>
        <mxCell id="XhqmdAoiVOFkfKMtNI7h-17" value="构建L1/L2映射&lt;br&gt;1) 批量交易&lt;div&gt;2) 跨层资金&lt;/div&gt;" style="rounded=1;whiteSpace=wrap;html=1;" vertex="1" parent="1">
          <mxGeometry x="470" y="130" width="120" height="60" as="geometry" />
        </mxCell>
        <mxCell id="XhqmdAoiVOFkfKMtNI7h-21" value="" style="endArrow=classic;html=1;rounded=0;" edge="1" parent="1">
          <mxGeometry width="50" height="50" relative="1" as="geometry">
            <mxPoint x="442" y="159.5" as="sourcePoint" />
            <mxPoint x="470" y="160" as="targetPoint" />
          </mxGeometry>
        </mxCell>
        <mxCell id="XhqmdAoiVOFkfKMtNI7h-22" value="数据构建" style="text;html=1;align=center;verticalAlign=middle;whiteSpace=wrap;rounded=0;fontSize=14;" vertex="1" parent="1">
          <mxGeometry x="322" y="100" width="60" height="30" as="geometry" />
        </mxCell>
        <mxCell id="XhqmdAoiVOFkfKMtNI7h-23" value="历史&lt;div&gt;诈骗事件交易&lt;/div&gt;" style="shape=note;whiteSpace=wrap;html=1;backgroundOutline=1;darkOpacity=0.05;" vertex="1" parent="1">
          <mxGeometry x="360" y="254" width="82" height="90" as="geometry" />
        </mxCell>
        <mxCell id="XhqmdAoiVOFkfKMtNI7h-27" value="" style="shape=curlyBracket;whiteSpace=wrap;html=1;rounded=1;labelPosition=left;verticalLabelPosition=middle;align=right;verticalAlign=middle;rotation=90;" vertex="1" parent="1">
          <mxGeometry x="450" y="290" width="20" height="120" as="geometry" />
        </mxCell>
        <mxCell id="XhqmdAoiVOFkfKMtNI7h-29" value="正常交易" style="shape=note;whiteSpace=wrap;html=1;backgroundOutline=1;darkOpacity=0.05;" vertex="1" parent="1">
          <mxGeometry x="470" y="253" width="82" height="90" as="geometry" />
        </mxCell>
        <mxCell id="XhqmdAoiVOFkfKMtNI7h-31" value="&lt;ul&gt;&lt;li&gt;交易频率&lt;/li&gt;&lt;li&gt;地址交互&lt;/li&gt;&lt;li&gt;资金流向&lt;/li&gt;&lt;/ul&gt;" style="text;html=1;align=center;verticalAlign=middle;whiteSpace=wrap;rounded=0;" vertex="1" parent="1">
          <mxGeometry x="340" y="370" width="130" height="30" as="geometry" />
        </mxCell>
        <mxCell id="XhqmdAoiVOFkfKMtNI7h-33" value="&lt;ul&gt;&lt;li&gt;......&lt;/li&gt;&lt;/ul&gt;" style="text;html=1;align=center;verticalAlign=middle;whiteSpace=wrap;rounded=0;" vertex="1" parent="1">
          <mxGeometry x="414" y="355" width="130" height="30" as="geometry" />
        </mxCell>
        <mxCell id="XhqmdAoiVOFkfKMtNI7h-34" value="特征提取" style="text;html=1;align=center;verticalAlign=middle;whiteSpace=wrap;rounded=0;fontSize=14;" vertex="1" parent="1">
          <mxGeometry x="322" y="230" width="60" height="30" as="geometry" />
        </mxCell>
        <mxCell id="XhqmdAoiVOFkfKMtNI7h-36" value="" style="shape=flexArrow;endArrow=classic;html=1;rounded=0;strokeColor=default;align=center;verticalAlign=middle;fontFamily=Helvetica;fontSize=11;fontColor=default;labelBackgroundColor=default;" edge="1" parent="1">
          <mxGeometry width="50" height="50" relative="1" as="geometry">
            <mxPoint x="461.5" y="200" as="sourcePoint" />
            <mxPoint x="462" y="240" as="targetPoint" />
          </mxGeometry>
        </mxCell>
        <mxCell id="XhqmdAoiVOFkfKMtNI7h-37" value="" style="shape=image;verticalLabelPosition=bottom;labelBackgroundColor=default;verticalAlign=top;aspect=fixed;imageAspect=0;image=data:image/png,iVBORw0KGgoAAAANSUhEUgAAAMsAAADICAYAAABGbxWdAAAAAXNSR0IArs4c6QAAIABJREFUeF7tfQmYJEWZdnxZ3dTAMODieHAsoowMXRFZM9AgsoiCx6664gHOeiMqiIAHiIICyumFIHii7qKgguCIt64H/wruL7DKyFAZWcPoKKz3MYgwPUz3dFfGn28b1X93T1XlF3lUV3dXPM88DFNffnFkfpkR3/G+JPpt3q+AUmp/InqxEOKfjTF7CiEeKYR4tBBixBizmYjuF0KERPTVLVu2fPe+++4bnfeTnoMJ0Bz02e8ypxWQUj6biC4VQvgOKh8WQlxTLpfPWbdu3YMO1y160b6xzMNHoFKpPLZUKn3UGIOvSdr2J2PM6WEY3pBWwWK7rm8s8+yOV6vVI6Mo+oYQ4hE5Df26kZGRE/tbs+TV7BtL8hr1jISU8gwi+qAQopTnoIjoru3btz9v48aNv89T70LT1TeWeXJHlVJnCiEuK3C4vyyXy8P9c0z7Fe4bS4FPX16qq9XqM6Io+r4QwstLZxs9N2ut/0UIERXcz7xU3zeWHr9tK1eu3GtwcHCDEGK3bgyViM4PguCibvQ13/roG0uP3zGl1CeEEKd0cZjbtm/fvu/Pf/7zzV3sc1501TeWHr5NSql/FEJsEkLs1OVhflBrfVaX++z57vrG0sO3yPf9jxljTksxxC1CiHuEEFIIsUuK60fL5fJj+4f9mSvXN5YUT1K3LlFKIU1lD25/xpgPGGM+X6/Xw+Y1UspVRPQGIQT+sBsRvTIIguvYFywCwb6x9OhNVkodJYT4IXN4W6MoOrJer9/VTl4p9TwhxDeZ+iD2Va31sQ7yC160byw9eouVUgg+vo05vJdqrW9MklVKXSCEOD9Jzv7+sNZ6KVN2UYj1jaVHb7NS6ovxueOljOHdobU+nCE3KaKUgpcLWcmJrVQq7XP33Xf/LlFwkQj0jaVHb7SU8mYiekbS8Iwxbw3D8IokuebvSqlrhRDHc+SjKDqsXq//hCO7GGT6xtKjd1kpdbcQopo0PGQeh2F4U5LcNGPB1g5bPE47Tmv9FY7gYpDpG0uP3mUp5UYiOiBpeET0iiAIrk+Sa/5ukzE/xJE3xqwJw/DLHNnFINM3lh68y5VKZVfP8+pCCAQlk9qFWmsc3FlNKfXvQogTOcJRFD25Xq//D0d2Mcj0jaWH7rKU8mgiepU92O/MGRoRhUEQKI7s4YcfvvOWLVt+6xC72Vdr/RuO7sUg0zeWOb7LQ0NDj/M873VCiFcR0X5phmOMeX0YhvhidGwuXxUhxINa67wKzJKGNi9+7xvLHNym4eHhXcbGxuAWfqUQ4uichvBmrfVH2+ly8YJBBxFdGwTBCTmNbUGo6RtLF2+j7/tPNcbgvIDIeBEBvxuJ6IIgCJAXNtkqlcpTPM9D5rILqAUuPUZr/a0uLk/Pd9U3loJvEbZZAwMDrzbG4C39+IK7y0U9Ef0+CIK9c1G2gJT0jaWAm2m3WccR0QnGGGyz5tU6I/EyCIJPFbA081rlvLqJvb7SFnkFX5A1QohlvT7eNuO7d2ho6Ilr165tzNPxFzbsvrFkXFoUaBljXo2viBBi/4zq5vxyz/OeWavV/s+cD6QHB9A3lhQ3BfGKkZGRY6Moeg0RYZtVNJBEilE6X2JsxJ6dOuPcwzy/oG8sDjfQepZebYOGuzpcmlb0t8aYz3qet8oY8/y0SpjXfUFrjYBov7VZgb6xJDwaq1at2rvRaMBAsM16YheeJIB5fxlxDq31rVLK1xFRYsAxh3E93Gg0VmzYsOEPOehakCr6xtLitq5YsaJcLpePJaLXCCGQJl/0NsvEwclbjTHX7Lbbbl+6/fbbt2FYNv3lB3kjUHZ4km/QWr9sQT7pOUyqbyzTFtH3/cOjKDqBiF4ihNg9h/VNUvErfEGw1Zqdg7Vq1aoDGo3GT7uFF9YcqDHmKWEY/jhp4Ivx90VvLNhmRVH0Khs0XNmFhwDIK2ttOsmPWvXn+/4/GGPWzVEQ856hoSHVdx3veGcWpbHYbdaLrLv3Wd3YZhHRD7HNWrZs2Zeb26xWhjI8PDw4NjYGoIojumC47bp4u9a6SFzlOZxa+q7nxFiUUo8xxjzSGLOH53kDGL7neZtrtZpOP5XkK6vV6pMbjQbcvUhi7AYc6iYi+hyMhJvq7vv+NYjbJM9mUgJkRH8uwPEAtJgV9Xr9j8xxLAqxrhiL9Sgh/eMFxpind1jZe4no60R0Y61WuyOPOzA0NLSn53lIf8dh/cA8dCbo2Br3c0MURdfU6/X/69KflPIsIvoA9xoiepYx5mNCCM72EV4uUOixmjHm+jAMX8ESXiRChRrLihUrdluyZMn74rffqa7rSUT/E0XRO8Mw5GJnzegiLst9med5xxtjnu3ad0r5m40xX9i6deuNaYiBpJTPx4vCoe9TtdZXKaXgSeO0z8cwSJBlgVVYhUdrrW/hKF8MMoUZi+/7LzTGfFII8ZgsC0lE38XhW2v9pyQ9lUrlSZ7nIR7y8i55s34RH8Kv9Tzv2lqthgrEVE0pBWCK2x2gVj+itX5LtVrdJ4oibiXjhYODgx8fHx//pUPe2katdTe+xqnWrdsXFWIsSqkPCyHenONk/uR53pparfbfs3VWq9VHNxoNuHuxz6/k2Gc7VSNxDhje0oh435a1P2wTS6US4Ib2Yer6ntZ68mtpEzdbetRm68ILJwzDa33ff2N8XmxbJDb7OiI6MwgCFsAFc/zzVixXY7HbLkCEPrWgFZlCXpRSHieEQHT7OQX1NVstgoP/obX+Ul792Zp4vACGmTrvGR0dPWzTpk0PQV5KeTxc0JxrPc97avNlo5QCzOtqznWgB4+i6In9w37OdRZKKbBTwRVbZMNbHXlS3QgaYsvymVKpdG0RyIxKKcAMweg57W+e5x1cq9XubQq7wLF6nvePza0igq/GGPZXsX/Y//uK5/ZlUUqBj/3tnLve4zJ/m+bNKgwGyPf9i40x5zHXYhxFZLMj6w519Q2t9aSLfpqhfUYIAQ8hq/Uj+zkZi+U8vJm16j0qBEdCFEXXdoMX3vf9lxtj2HQOzfPG7KVTSt3K2fIaY34ehuEM9/JBBx30qPHxcTgouF/outYafC+LtuXyZVFKrY8pClbNw1WsG2OuLZVK19RqNQT3Cm9SykNjDGOcU8qczojo0iAIzm4lq5SCJ4zjGPi+JVadoUZKeSoRfZwzjsltyCI/7Gc2lhS8H9x7U5TcA3EQ74uIqodhiETFrjVLe4ecr0dxOiWibwRB8EIbH5lxyZo1a0obNmyY4OgRQnwydr234qUk+6JLxFS2/WxpNBorF2safx7GgqDV05g3rSkGGgM8qOBLhFfmSUWnn9h4DbJ7c/NmucwZkKylUukOYwx3K3N3uVz+p3Xr1j3cqh8p5YoY5xjbKE5rm+tlY1MuZ7NFWySWyVgQ44iiKDFYOO1urvc875RWqSxSStSxw/+fJ9DDL4jo6rGxsavnmn1XKfXdOPAIjnlOA4fKwZ3yyZRS/yyE+B5HWRLAtyNSpbAsY06pPJxx9rpMJmPxff9kG6XnzHNduVx+ars3JRRUKhXpeR6+OCyc3zadwpv1OQQOtdZ3cgZWtIzv+x8yxpzh0M+hSWN3WXsiOiQIAmz/WrYDDzzwkQMDA3CT9w/7HW5SJmNRSoGa7d84D8HAwMDj169ff1+SrJTyNCJCcqBr+xYO671GkeD7/uuNMWwMLi7fipTy/UTU8uA/e+GIaI8gCHBWa9tSjNOJRMn1ZvaifFZj4Z5XPqW1ZrPlKqWwtXs0Y8Eg90HP8z7fLW8WY0xTIlLKpxMRG1aIiN4dBMHFnD4cXlQPaa1ZXwylFNJuDuX0vxgj+1mNBRTSnHysY7XWX2XeBPAesvgUjTFfD8MQ3qKea7YsGNtA1hmMiL4cBAHA+VjN4cFer7U+iKPU9/1hY4zL1vU6rTXAzRdFy2osv+fUSEzPS+KsqpTyIiJ6V5JsrxqLLQvGW3pF0hzs73eOjIwc6ZLa70Ck+hWtNTelBi+qq4QQ7F3AYjrsZzKW2IOFYq1EThFgXoVhyOZgd6C1DiYmJo6+55577mc+lF0RiznsudtTjOc3g4ODw3fddddfuIOzWMooMuO0y7XWXIpwsXr16kdMTEzApc9iNBZCaK21K0I/Z9w9J5PJWHzf/1n8dud84i/QWl/InT03jcPqw8H1XK01ame4hVDcoTjLKaWQ6MndmgAj7LAwDEGJx262/gUErYnNGPPGMAzZUXoolFKe6IJVBk9fGIZXJg5mngtkMhYp5ddQKsxYg19orRPJRKEnftiAF4w3m2tbH0XRyXNJRe37/luNMZc7DDwVB4qU8hhE9zn9ENFzgyD4T47sdBmlFAKVCBZz2qJI489kLEqpc4UQl3BWE14rrfVZnWQt8SjqRp7M1LmDGN6I4+Pj7+z21ixF2k9qBBUp5elEdAVnjWI8g6Hp5EacayBTqVQO8jzvZ1x5Wwy3oOFfMxmL7/vPNMbg4eY2FE+d1Eq4Uqns63net/Fx4SrrIPdXIjqnWxwjvu/7xhiUBbPYvGxeGjs9fvY8lVLY8ryFs04jIyM7uzgOZn1dwBjWKqesZdcLPY0/k7HYbRM3JtJcYGQoI63lV/gHIhrAvl0I8U7uw8Z5SKzMT4nolE7RawddLUVtqjui4xwabuj4kdbaNZduRt++73+dAxSelcHLHvZ/zk38jAvZAq01Nykz69J3/fo8jKXXi74iIcS/DwwMvGP9+vVIhcmtAaxvyZIlSLfnBvLgPRxOiqYnDdD3fc1MyLxNa50JrM/3/dcYY1AoxmoL+bCfh7HgjYoD+U6s1Zw7ofuNMe8Iw/DqvLxmSilkMHMDiQ+VSqVD7777brypMzWlFIDDlzCU5JIh7BAAxZC2bN++/QlznbjKWBtnkczGgh5TJAo6DzTHC35iM59dDq87dO9S/y6EaBhjnpUWA2165y6Z3saYi8MwfHfWtbOuamyfuc9LLkaaddx5X8+dfMd+pZR7EFEt3u7MJ4bbqwYGBs5JszVTSgFl/waHmzEJiOcg31bUVloiOyCxAYUzCIJrEgUZAkqpjwgh3sQQnRRZiIf9XIwFiyOlPIKIgGFVNJcJ935x5BA1f4fW+rPcrVmKsuCPB0HwRs5gODJSypcSEXLnEhsRHRUEAer0M7eVK1cuGxwchFNmOVPZgkPjz81YsIBKKUSuEcHuRsONe0JOHcHt+watNb6ObZt1byPRkFUWLIRoWfueZcy+77/DGANIXE7blwtIzlHmglNm9b1Fa40v0oJouRoLVsSiJH5NCLFHwSv0B8/zjoiiCA8OtkWZG8AbSqXSea22ZtVqdWkURTAqVh4UEFXGxsYObQLiZR6cVSCl/FTsEn49R1+cYpT7/VVKoUKS62HbMjg4uL9L3htnXnMlk/tiYiIWkhSeoqcUObH4gXx5DPHzRaSWx2/7j9t4TdYu/2yMOQtQp9MUeUqp7ziUBT/ged7wdEC8rINqXq+UQhD4mQx9m7TWuXNg+r5/YFygBmqQEmMMEEHFqgsYOVNt98UKMZbmNCzUzvnMQq7pswdIwy6M5fiZ1noK+lRK+WKk1XAyoRm6b/c87/XgjHHIgp5UGxMXPS0IAhYGMWMcM0TirS7c9MifS2q5bwGbHfq+f4Ux5vSkAUz7/Yg8cKEd+itEtFBjwYjt9uULQghOkda6RqNxTKlUwkPP2uu2qpVRSiElHUaamX4bNTPMZNGmoeTmgWp1xx0oJpyqU12eLnvYR7zosczranHx33zElZsxvcKNBb0ppZAhe0zSwhpjzg7D8FILmI00msQqw3YFYAcccMDynXba6SIhBPb33C1D0hCTfk9MFk1S0Ol362D4X44OInpHEARsYiSOzukyKZw58/6w3y1jAep74oM/vepOKfVemy+WdB9NXIO/f7vzAfbYMWoJtg2Fkhp1AsRLmgD3d9/3n2aM4ZILvaRojDTXw/58j+wXbixSygoRoVY/qU0sX75851tuuWUSZdFGqgFPmphGAy9WUiwDeMzGmA8zc6qSxjr79/qyZcsO6USs6qqwlbzv+yeABpyjyxjzpKIRN1Mc9j+ntebyZXKm2VWZbhjLSUT06aRZgRYvCIIZdSwx3CnyuF6bdK0QYtv4+PhjNm7cCNrsTs3zff8kYwy2Zxz0GEbXAoHN4TzjGe06lVJeCAQYzqAmJiaWd6OmR0p5ORG9lTMmyHTDiLljcZUr3Fi4tAgoZgqCYMaiV6vVlVEUbeDkJBHRO4MgeD9nAXBARaoLEcGjw0lI7KQWtfDvKZfLl61bt26c039aGaUUwAM5BVajWussQIXsIdrD/kYOcIlVWhsaGjp47dq1DXYnPSLYDWMB0mFipL0dxKhS6lsxLvK/Mtbrz8uXL9+7uY1jyCMe9LhSqQQDA9V31vYr62pm44S5duhwRuiq9wlkt0R0vcN83qy1ZlP1OegtVLRQYwHffZxGwuJSbzQae7VCZ4+RUo6KgcdZjMVE9MogCNi8J82VrVQqh3meh+s48YukG/IdInpTEASTxW15NqUUSF45yapfjVN3js2z7yRdSincI9wrTpuXkf1CjQVBQiJay1i9/9Vat4VUUkoByYRTgZfqjRp/vQ6Jo+JI42BxpjDmMxbHeC4bGRm5JG1J7+w+XCgmWm1pGWPOJGIP+8itG+QoAhdmEARglp43rVBj4daKI4s2CALQcbdsLinxxpinu9SNWHpsEJJys2ldbu5vLAEQ54XRUa89v93D7HxOtjmuVInz7bBftLEAER9v7Y6NgW2F3KxfM7cg39JaJwZAMSDLrnwH0tmSxpjx91uJ6A1pUFaa/Uopn01EXEij52mtAf7R1WbB/5COsyez43l12C/MWGwUviURz+yFjKLooHq9jkq8tk0phcIjVgpMqVRaySnfdUhKxLjAmZL16/PR0dHR89JkIiulAKnKLSCraK3hRex6U0qBVQHsCqzGeFGy9HRDqDBjcSBlhZsTEEIAlmjbXFJgOtDCTelXSrmw9a4vl8tHjI2NvSzmjkEKCRfatNV8/mTTelj89U0FLlucLPBHeTx0UsqbY97MZzB1zZua/cKMJU74QyLjBUkLRkT/FQQBa2EdUmC2E9Fj26GoSCnPIiJu3tRfGo3GqqanzsIDXWaDpVnWb50x5nVhGLJgWH3fXwvulqT1hPdRa83dBjHUuYv4vv8EYwzOV6zDflYcNfcRprsiy83u2KNS6vtCiGclDSvGDbskCIJExHzosSkw4KOcwenepo/ztNbvmf2bRY5EYidn7mPGmCNbpY1YLkaknnAoN9otwyRMkzHmnDAM/9ppreJxo0Jzqhyhg+ztWut/Slr3on+XUr4PyZzcfubDYZ/zwHDnO10OB3JEthOj465YvA4pMDsEKa2LGHUmrOg2Ef1bEARtPVlw595zzz1vMcYA9DxLOQAMBcYNhrCW29H4zAamgMTqU2PM9WEYviLNTcvzmjSHfa01yHjnHNy93ToUYizVavXgKIrachhOH8z4+PhujJyuqUscU2CmaktcXcTGmPeHYQiUzMRWqVQeWyqVPsrcJrXVh4TTRqPxunq9PoM9eL/99luy6667Aisssbl8qROVZRSQUh4HkiauGhvMTUORyO0ik1whxuLguaprrblU11MTVUrBLfpcxsw3aq0PTOEi/p7W+jmubznQ4sUwrlfnUKn5Bc/zzmxS/0kpVxFRR2/htLV4ndaajSDJWMNMIgvpsF+UsXCJWdsChXe6Q451HaDTPidOmeHiC9ejKDqsXq+PpHlKLKQrvkjYr2fJCEAG9UXLly+/8v7773+eMYZFM+galE0zR5drFtJhvxBjidPgf2eM2StpUY0xJ8wChki6ZPrXhXvgxUPPPU/c32g0hjds2MCqRkwwaHiEEBcBX33qBpQYIcSdRNQ2w2GW8lzhj1IPfNqFvu9fbIw5j6sriqInz96Kcq8tUi53Y1m9evV+ExMT93IGzQ0ettLlAjbHGUvMHjZujDk6DMMfM+VZYgjSIVeL8/JgKews1NBaczyFOXTFV2G/tr9wYBpAjl/PHfZzNxaH2uz7tdZZIuIuKTCcO/sqrTWANXJvIGkqlUp4uyILoUg8gF9prfPInM59DXzffyF3K4nOezGyX4SxgNvxZMZqf1Nr/XyGXFsRpRQIffLgMvyw1toF2ifVsC3A9r870M+59nOz1joxtuWqNC/5+X7Yz91YuNwhLpWN7W6WYwpMOzU/1FoDtK5juk1eDwyCoZbgFEVniXETl35BERgEAQut0kVvXrL2sA+yWa7j47Naa05ZeV5D7KgnV2OxJaZAcklseQHRuUaKpw+sKIjVxMnHEPwHHnjgIwcGBj4ohEBNR1734RytNRcHmTPM3GVccATsdqxw4A3uJPO6SZP9KaVQ/osy4MSWV7IfAoKe5/0hscMdBbYYYw4OwzANM3KK7lpfEqcFITXlP/IoE0Ce3cTExGvz8OblNsFZihBgXbp06QaHWNR6rTWHPr6oIU/pzdVYHN7yP9Vac2mjExfBMYMY+nIjF0ocHEPAVkHizITEU66bu53mUWPMpVu3bn1fXlWajCk4ibhQk9uvy2lhGIIMdk5brsailAIXyFOTZkREVwZBcEaSHPd3V09L0WiN3HHPllu5cuVeg4ODAHLIo37+d0R0RqfctrTjzOM6KSWwCpAlwWkPbt++fcVcU+/lZixHHXXUwObNm5G/xPHz54aWaGFaAwfcXdycj2itWdTYnDuZt4yUElkHn3TYqnQawo+J6MQsVZp5zw/64oRYcJEi9sI97H8mxmZ7XRFj4erMzVjs3psV0BsfH99748aNv+cOsp2cDXYBaCKxdHmWjm2x52jvrKzBWcff6XrMrVwun0tEZzk8UO1UAuXzqnK5/K5169Y9WOS4XXRza56aOuc6jT9PY3l7TBMBmu+k9uuYlu5xSUKc35VSyGg9jiPbQqZlvUtKXYVdFidn/oiIjsypg822dgYOhTlPhbcvO7iSE3Hl7PznNLKfm7FIKb/GoWZIQnLhPhRSyvOI6GKufAu5P8ekqMA16+mmlEKe2r55DjK+T0CzOS0IAjCZzWlzBOLAWHMjs3WdeG7GopQCoAOnNj0zTI/v+2uMMWAWy9SI6OQgCBJxmDN1kuFiF6ywFN3gy4JSgLc1SwFS6MjlEu6L1nb2t4GBgcenYZnOOthcjEUpBSghfE4TGxEdEgQBqzCslbJKpfIUz/OAfshxJHQcT5z1fF8YhtgCzPmWpNVApZQriAiH4CIbSgEuLpfLVxaN1dxuEikO+1drrU8sclFa6c7LWOClwD44qT1skVyS5Fr+XqlUpOd5wPnKGouY0h8XVb0wCIKvpxpQwRf5vv9MYww4JLvR7jXGnBqG4Xe70dnsPpRS58YvwEu4fc/FYT8XY/F9/xpjDId34xat9dHcBZkuNzw8vPvY2NjPHA6D3G5u01pz2Xe5OnORk1Ky6Dpy6ez/K/km2AWKwGruNM7h4eHBsbExIML07GE/F2NxIAV9r9YabxDX5kkpv++AReWq/1CtNYrJeqoppYBOgyrPxIbEVGMM0vPz2p68r1wuX7Ju3ToWUGLiABkCDlhzTW2naK2R5d6VltlYLDwR+B8TGxH9axAEoMh2aq5swUKI7xlj/kBEXODpr2it07qgnebiIiylvI5bIUlEzwqC4OZKpXKQ53lIDZlBDOXSb1OWiH4fRdGZYRjekOb6NNc44KNB/d8mJiZWdIO0CZ1lNhYXBA9XJBcMUEr56jiSfQ134ZuZxLvsssueXCIkHPAHBgaesH79+vu4/XRDzvf9O4wxh3H6ml116vv+y5EjxsSH7tgFWNks6gyH7pAz3LYy9rCP7RiH2h16UuE4pBlkZmNx4ES/R2vtBMBtD7g4cHKrCx/wPG+4ScbqgAKDyrxPh2HIKVpLs86pronxjcFtw4kFmeXLl+80m8jJYndhG3cmB8MtYZBg6vo0aumTAAFTTXbaRUopAH6AgJfVunXYz2wsSqmfCCEOZczKyd1n4X9uc3jDiNk1Mo4oMMLzvMfMdcyhuY4uWGFxZeoftNZtAUIsw9kVQogXMe5TkshDRHRuEASF4nvFbGIbYzaxA5IGY3//mdaag9bJVNdaLJOx2BsK5EmPMQo2ntWqVav2bjQaiMVw3qrNrlvW0DsQIcHY2FCyjPlmEnFgeUY/d2itD0/q0L48cCAG3XmmBkDAKIpOzhvgozmoXjzsZzIWgMrFeUssDkUiGuJkvlar1aVRFMEzxb6hnZiuXIiQhBAPLFu2bO+iKbo5T6nv+881xnA5Vm7QWgPhP7HZrIBT4/MqIGf/IfGCBAGkL01MTJzZiuIwq26lFLI01jD1FB7Zz2Qsvu+/2+L8Js1ni9Z6tyQhOByUUt9kEq421QE9EuiU7WroXVFgMqfjMOaZKCKlPI2IWFsdY8wHwjBkg3CjcynlHkQE1zRq9jk7g05jxu7ivaOjo5dv2rQJFIG5tKGhoT1LpRIqWXvisJ/JWJRS32OCyH07jmM8L2kFHYxvUhU8X8aY4ST0SAc4WWzFfh8EAWotugVg0XJZlFKgtcDBnNNSxxtsVgQAyfMIzP7SGHNGGIZ44eXSHOlBDLyHrVgP8hhMVmNBXhEn9SQRSMFx24G5/83zvIObnq9Oi2FRYMD0y0VTeWnsuWOzV+VxI2brcCk/MMY8J2uaiu/7r8AXKidX83cnJibevGHDhlzy2uKtNFjMuNvydVpr1/om1i1MbSw2+IX0E047Wmt9SztBqwuer0SKCqvDGT1SKYW8I272QKC15rAjc+aeSkYpBQfHwcyLc6HFsw4bbOdQcMai5egwvnFgunmed2GtVsM2LXWTUh5BRCjyYzXL34mvZa4ttbG47KnL5fLSdmkT1q0Jo+O+9bFVmqKS4K6GS6YBdM41wLZSCpwtrAP4smXLdsnTKWHpOS6PM8nBD5m1/cUY8/a0mNbNzpVSXxRCvJQ5mAePxCPbAAAW/UlEQVQnJib2zzuyn9pYHAZ/Z8yc2zIOY99kyCJexVwEGMqlQRCczZWfLiel/FR8JuGC0H1Haw1op643F/y1uBiqsCI2Ww4BcHOVdRFsFsAp9XodhWfOzUJeYVvH2fZD/3XGmAvyhLrKYiyooedwF7aFRlVKgYT0eIeVYzkK2ukbGhp6YqlUAio9q0VRpOr1euEpHrMHY2FeWVyTMU/NT7TWrJQY1qRbCEkpT0UMivul69QPUDPHxsbOSYPU4vv+W40x+OK5NtRaoTz7JuTPuV7clE9lLHbrxM2jaonk4vv+G40xgP3hNh1F0eFJnq8kZb7vf90Yw8JYJqJrgyDgJmMmdc3+3RHa6UsxjfdL2MpTCvq+jy0hwM1PS6li+mV/M8ZcFIYhsgqcGhceuIPSB4QQnxgfH/+AC+Mc9KUyFpukdx1nlqVSaZ+7774bpKlTTSl1VEwuhGpHbkPJ8sExFM5vuBe0k7Nbi//m6mk0GnsVEXDr1L+U8nQEWjljzLIt5eifLWNdzYj/4B5mbXjjn9bJ+TO7A0ugm4drGhydF2utP8ydRCpjUUohBfwURie/01rvM13O8rfgQM86vNprj9Baw1uWS1NKgbORhYjZ7YcRE1RK4Qa+mTPZueJhlFK+mIgQC8oDqecmIcQZSS9Da6gwlMdz1oYpc/PAwMAaTk1/WmOpCSF8xmBmpGHgUx7HBPCgPpFxbVPk+Jhz5PMO8omicb4YEgq/kij4d4GR8fHxvVw/2UzdLcVctopCiGPiuAILXzrLmNpd6/v+u4wxyBLO6mqG8+b8IAguatWX3REg/YeTCeI61Xsbjca/JMWFnI3F0VNz+vTPnO/7/2mMeTZ3JmnSOJi6kQKDNAruG+qsGDsAiPddaUopIGyyPFBEVA2CAPJz1mxayoccXLttxwoQESI6M45zTb3MLFUFdiO7FzjJ327fvv2gTo4HZ2Pxff85cf0At9pxqlzXtUaBiL4RBMELilocpRS2kSywaZsCs3dRY5mtVymFIB4rH8rzvF2zBv3ympd9+388/mrnEdC9udFonIq3vVIK+GaZKz8Z8+wIWO9sLA6R8G1a68kb7vv+C4wxX2MMtilS8zzvn4p8CGwKDBwGHKwzBClTk8U6zFtY7Oa/MK/5q9aaNX6mvlzEfN9/vTEGZE0u59KWfRPRd112IzlM4JNa65bncbax2Aj4q+I9/NuYINzwgB1OREuNMUjdYL0pY+8IHpThpMNeDouCg/T5sR7QPHCa1lpzzmkcXW1llFLIa/opU0lheVDM/tuKrV69+hETExNY254FYG83eEvtjqLGGS3RWKrV6sooinDoSpv68Od4u/No7uJ3k9bZsm/BLc1qeSQsJnXkiLbZk0Ab0+doARg/IoQAFeF8aS0JlNoaCxh2Pc+Drz8vaJ3EhYrRF18RBMH1iYI5Cji4weGt+a8gCJ6RY/c7qIrPK1yAdWwNPxSGITeNv8hhJ+pWSoFzBk4SLi5Yos42Anj54YxzTxyx9y3gh/N2EIHr2aUGLY3FImzATVf4tmPahN+jtT4v7Qqlvc4VIjWKooPT5jdxxuhivNjiaK3x1p43zTp63pWHq3nWpH+F7IJWpQq2WhbOHHayrhBih8yIHYxl1apVBzQaDaRDP6qLd+CrWus82K5SDVkphaAYt/8btdbc7Ffn8SilgGYDMqPENtfQsziXRFG0axRFy4wxSHCc/ON53rLm3/HfOJ+r+f+Tcp7nrTDGyMQJ8gU2lsvlwzpxz9hg+HoX9/Po6OjumzZtmiIUnmEsSqnHxJ6HO3JinOJOdX25XD6im8iHswdWqVQOsxjKrDFbFHdubhxLZ1NIKQXMrJWci6IoOqher+MBSGyIjwkhli1ZsgQPb/PP5EM87WGefNiJaPrDjr8j4Lg75OKofdMouLVHiWPLKhB7WleHYZiYeOqIx4BhzSgCnGEsLqBuWSdor/9jqVQ6ZHbuWE66ndQopZAv9hTmRbnQ7OFcaN/E8Bg2H1SXIqcrjTElPMSIt0BXFEVLiQhR7uZDjYed64lkTr+nxNZqrdnOJ6UUss5ZGSSzz4RTxuKSvJfTUo0KIY7sFYxhKeXziYiLpr/NGPMiz/N2nrb9wEOKh775Vl467YHFm3n6A4zf8Kffsq8AG2ILXbnk3Qkhfqy1nnqBThqLLay516GsN/sUhXhwfHz8H7uZc5U0aKUUiotWJMn1f++pFThuempM0sgcS0NGtNZ4+U22SWORUl5IRO9O6qiA31OjkjTHguTMRqMxuR+3+2284ZFDNLkXbx427Rt/ao+Or4B9209du8C3KwXcvrlX6Vpvr5RCoBTBaE6bkTU/aSwOmLpTHSDhzfO8O40x4DwEdCZKh123FtoYg4yAyT1384Emop2jKHoEHnS7zWnuu6cfMpdzZtuXWfAr8AWtNTJLWE0p9V9CCC5H0IxcMUrBLnWbteYdMl3tJw7I7ZnTtVkz7wv1VyCG7OFSxTsiEmFtv6m1nqqqJSnlRUSEIBGn/SAuwvrnToKusDWcTvsy/RVIWIF1lp8GJcMtW6VS2ZeIbnUMi1yotZ7KHQRcKsp7OSWiDw4ODj7xrrvuSsyIdUxQ7D8J/RXIYwU2eZ73olqtpmcrsyDjAE10ytC29CVT2Hgwll8xi6DY6SiWFwQ5Ov3tWB6PwfzXAQw0oJduMcY8QEQPxwVe+Dui4/jvg0Q0gr/j36MoAq3FkUII5Mm5thtRjet53kZjDCC24PoFFrZTa1XDBGNhgblFUXRkvV5nB8xc0jacZtEX7tYK4GWHBxwP9IMxUN5WIpp8uO2D/iBKrqc93Fs8z3soRtTHf7cMDg4+9MADD2y57777EE9zbrb6EnBbc9Uu01rPMFYYC4sD3hVDSymFBL83zdVMF2G/25oPt32YJx90+zDjAcffH4o5IicfdvtGn3r4BwYGHhodHd2SN4pjmvtg01KAD9a16tTZ42xFbAVj+QOnmMsVztT3/euNMSzOkDQLuoCu+RMRbTbGPIL5cIBY9rhGozH5oJdKpS1BELQ92M6ndbIgiMgOntPaF1R5hmEIEI4ZDcYCOM3VSYuKoGUQBBcnyTV/V0pxESu5KueDHLCosH3Bw78ZRhBDRoHJGfv0yX/zPG9zo9HYPDg4uHk6/I4DOuetMc4WxyEzH9Zrcoz2jAuvU5ozSq7zRPxwyZIlq1tlMMNYuCnhv9Vag7cksaXI7kzUWaAAvHuTWxR74MQbe/JPjMl1vzHmdA6+rjHm62EYvjDtOGMWNcCL4lDbsRljrgnD8DVJcvPld0t1Afyxx/bAmEeJ6Ent0HJc4yyJZay2hvwHMd0AthVFNezPpz/UD9q9OA6ikw9+8+G3+/SHPM97sNFoTB5CcfjkuMAxeBdSIddz3fTFUUohE2LfpAVz/cIn6Zur36vVqoqiCPyWeZAo5TWNY7XWX22njFJENW9rNBovbgVpKqU8EcDPGUd+GRFtsu5DPOQPYX8+ODiIxMuHiqaVnj12WzX6a+acnFIvZhkLy9EihGhJNMsc35yLoa5mp512ush+sed8PHYAD3qed1ytVuvIj9pMpLzXMbIJdzMAtu8kol/HRKGHEtHTHepBOi3Sw0IIxHTYPOhFr7iU8joiejmnn0ajsd+GDRvwlWA3W8WHrO/E5nne4bVaDTQd8675vv8ayy7WzSrcpHVa73nesRwGuUlj8X3/bIvzlKS4m7/jgTt7runqMGFHCoirtNZgA2Y3F9bnuQAqZ0+kjaCUchURXW0TbrOqwxkTnipURmIbhyTeNA2B0YuCIAA1IKtNGov1RqBMtpcsvjmBHxPRW4IgAPbYnDWXbNUoivas1+t/5A7W9/0TjDGfZciPaq3nTVYEGJE9z3u/MeYkxtw4Ip8YGBg4d7oXEfQcURStISLgV3PWBk6bm4wx76nX69zt9eTYpiollVJIle8ani9nZWbJfM7zvHNrtRqIVLvelFJgAWMBcLtiNDvUWNS11nkCPRS2jpYA6X05AXn/OGY4OzUGNQEgfdsmpUSZyJOICGXDexljYKwPwGUvhPgjEf0wCIIfpZ30lLEMDw8Pjo2NQVE3MGXTjhflvB9csmTJB+YA4AJudrDmcsAkRuzXBflOic0hxpKJ+SxxIDkIAPyjVCpdnRN6y5+MMWeFYfi5HIaWWcUMwApAtBpj7jLG7JVZc4EKkOQWRdE5dhG5XqTMI5JSnkREn+YoMsa8KwxDUMslNqXUrUKIpyYKCvFRrTWLt4WhK1cRC++LFJVX5qB4gog+tm3btvOnQxHloDeTih1ww7oQJwGVANIZ8uDZAID4G2u1GpvJK9Nq/f2wDzhaztlu87Jly/blsAgrpXBeTCQFirNzzwjD8Mqsc8j7eouiiQh8HigyPzLGnBKGIVjBeqq1RKS0rsz/FEIcmONox4QQJ4GYCAc/IkLqzMkxVVkphz5uitO+zwqCAOUGhTbf999tjLmQ2UkiYuRRRx01sHnz5u0cysK5BtWbPWff959mjEFcjQUt1GnN7G7hbWEYgsK7J1sS1jHo2l6bw8jXE9GJsz1avu8faElY80qcu2x8fPyiIhFjHMHEE1OEHGMsfqviphzuj5OKarW6T4xCiS0XG68roYPLoyi6ICu5rtMkUggnougDBZ2I4P5jMfzOGgOq1t7dKYUA8lLKY2IURCx+5jeUpaxAnzhbRCnWJPGSGLkT3PBvSBTE54LotUEQtHULu5DRjoyM7Jy2PoQz1iSZFStWlMvl8tuJCHGOzFsuAK0T0am1Wm1jUt+98HuisTQHad+AL7aYwPCYtbsWHqOvRVH0tXq9vgPHRbtJW28cDq/AA8hMh0ZEIeIzSSkMaW5CtVp9fBRFv+RsnYQQv9Baw4PW0hHhEGP5s9b6MWnGm8c1liUY56X9c9D3G1DhBUGwNgddXVPBNpbpI7KsWfD37x9zxePBQY3FL8rlctgJnJkzK8t8BS8SzjN5tG/FuWVvTSLXdO0ojurDUYFAWGIzxrw4DEOAj+/QHGIsd2itD0/sLGcBy+eIQj7EmfJo7y2Xy++ZA9d/5rGnMpbMvTIUWBpn8BM+jSGeJDIhhLjKGHNBXomY1Wr1yCiKuAGutqxhvu9fY4x5ddIEiOiLQRCw8tOSdHF+32+//ZbsuuuuoABBsLrMuSZB5nuW8x5f5HnZetZYmquZMwkOorkXPepRj/rYLbfcAgPK1JRS2GYiasxp/6K1/v5swfjMcgvzhcAGDOEMppOM5bgH+zCrfqmTLgvGeEYQBC6colmnUMj1PW8smDUOljvvvPMZxphzLExrpsUwxgBJ/e1hGH4jiyKlFLxBgNjhtJYVjlJKbsb3iXHxHZIRC2u2rBeu4Dy+5qPItti6det759IpkedizQtjaU7YRonBgotti5fDQtwaRdFp9Xo9TKnLU0ohGY8FrEBEh8xynyOFBjGWgaT+XTEQkvRN/71arS5tNBoAW4SDJXEsDN3fGhgYeNP69esL4bBh9F+IyLwyluYK2JRvnGfyqLKLkD5OROfVajVE552aUgpsvNyo+gw40KGhoceVSiXWA5WmToYzEaUUcIIBuZu5rBdbLrjUwzDE+WTBtXlpLM27YLdBuNGJqSKMOweIoPdu27btik2bNiHbgNWsZxCgFFPUBB0uNJ7nVZuBRRsBx5klqTW01nm88af6gQPFJjweltQ54/dtRPS+bdu2Xeqydgy9PSUyr40FKwmvzdKlS99GRO9IgeK/w83A25GIUHT2Je6dklK+H9dw5I0x14dh+ArIxueVV8cVqtcwrvul1joX3pjh4eHdx8bGUIWaV6oRataR1vMbxjzmtci8N5bm6lsEQ1S9Ies187yI6H/g6uQUndmz1O+Y+/2o0Wg8AaXHDpjQiYDsjKcQjAknoehJCJEHXccvLTvwgtxytVrPzA8V4yZ1VcT3/WGbb5ZXAO9z4+Pj79y4cWNHKFFuvMQuxlVRFF3red4VQgjOOD+ltWal17RabEswi/Sfag43A8g6l/QSRkIOc2KpWHDG0py1xaOC52wf1kp0Fno4JlW6rFPRWbVaXRlFEZiGi2jANLtybGzscpf6DpsNgTPdCXl8beOd49rx8fHTk14cRSxAL+hcsMaCxQW2wOjo6NlEBKRDTn120j35HWI9YRh+vlWul1IKQcdnJSnJ8DscCce3Cm5O17lmzZrShg0bTovd6xflkWcnhAAi/alhGII1a9G2BW0szbuKlPJGo/EBLpwR42n4med5p88uOlNKgeip8D08shDCMGzJiwgPW1yc9vGcynq3gn8xJiFFRviib4vCWKYZzZOjKPpYBvic2Q/MTQMDA2+bHnxTSoE+UBX9ZM3maLcODpyBXpJT3zfYBFQAx/dbTvvY+baQgKw9HnEBIcSeOQx+jIg+vH379ktQdObgDs6hazGJUWZx35D0uGsOSutEdEoWFJQcxtCTKhbVl2X6HUCKRxRFKGI6N6c7A/A3FJ19sssMAuiXgwmQNE1wtrxLa43q2H5rsQKL1liaa2FTToCXtianJwTVoQDYy6tUOqdhtVcT1yRda4xBIBYOhH5rswKL3lia62JZlpFvBh7CxdIAWndKzEB922KZcJZ59o1l5uohCxgAHYhyz1kJb5YbyrwWdT3ANQOWQCE4BcxxzCuxvrG0uF2gRRgcHIRr9swu3U14nJBes8mysD0pJ1y1VsO/emJi4uxe4I7s0trm1k3fWDospa0/BysVq9Y+xV35X2MMUtrBvjajWa/aR5nZzIldE9FdjUbjlHq9DqPstxQr0DcWxqJZSgg8uBWGOFcEhnJwJ0wAi0Pw04zZB38FdFEQBCzYWe7gF6Nc31gc7rrv+yfbrN1HOlzWUtQY85QwDIEO37FJKU8D7m+SXKvfY8xqGMg78wLpSDOGhXRN31gc7+bq1asf0Wg0zs9I8+aUcq+Ugkv30Q5DvSOKolPr9TqYqPstpxXoG0vKhbTgDsiZOsZVRcwX8sYwDOGmZjWlFPB/X8oS/jvFIKL5/ZbzCvSNJeOC+r7/zJg0ByB0Q1xVnuc90wUpU0oJMAkgdSY2wOyGYfjNRMG+gPMK9I3FeclaXxBvlU6Jt0qfYKp7ntb620xZ0FwgwwBgd5x2tNaaU9fP0dWXmbYCfWPJ8XHwfV9zUuOJ6PwgCFBrwmoOZEcAIh8KgqCoIjTWeBeqUN9Ycryzvu+D7jyRbQAgfzEPCYduD18VAHEjWMlqo6Oju7tUU7KU9oUmV6BvLDk+CEop4IcBRyyxEdGlQRB0RISpVCq7ep73Aweezwe01nskdt4XSLUCfWNJtWytL4oJWlF4dYODyv/QWrekva5UKvt6nodzjUsh2ee11sc79N8XdViBvrE4LFaSqM0peyhJbvrvSEMxxiDoeKfneYAXAjrNkQgmuuKg9RqNnss6zAfZvrHkfJeUUvgaPDdntRx1/S0YZ5UyyPSNJcPitbpUKYWkSxAddbuduxixvLq5yH1jKWC1lVK3OxzK8xjB/Z7nPa5WqwGNpd8KWoG+sRSwsNVq9eAoitYVoLqlSiJ6UxAEqZItuzXGhdBP31gKuotKKQD7AQ2y6Haj1pqbN1b0WBa0/r6xFHh7fd//GMCzi+oCnrRt27YdvpBpHopauzR6+8aSZtUcrpFSXk5Eb3W4hCv6QyI6LgiCB7gX9OWyrUDfWLKtH+tqC1L+GSHETqwLkoU+PDQ0dObatWsbyaJ9ibxWoG8sea1kgh5QYURRdAURIeCYtq3DV6qPFpl2+bJd1zeWbOvnfLWNw4B1+RCHi79jjPlMGIY3OVzTF815BfrGkvOCctWtXr16v0aj8RJjzLMtRhnYuADDCvbjnxMR0v1RHvzter0+wtXblytuBf4fWr23E7SrKNUAAAAASUVORK5CYII=;" vertex="1" parent="1">
          <mxGeometry x="190" y="332.5" width="68.52" height="67.5" as="geometry" />
        </mxCell>
        <mxCell id="XhqmdAoiVOFkfKMtNI7h-43" value="" style="ellipse;shape=cloud;whiteSpace=wrap;html=1;" vertex="1" parent="1">
          <mxGeometry x="313" y="310" width="70" height="50" as="geometry" />
        </mxCell>
        <mxCell id="XhqmdAoiVOFkfKMtNI7h-40" value="标注" style="text;html=1;align=center;verticalAlign=middle;whiteSpace=wrap;rounded=0;fontSize=14;fontStyle=1" vertex="1" parent="1">
          <mxGeometry x="318" y="322.5" width="60" height="30" as="geometry" />
        </mxCell>
        <mxCell id="XhqmdAoiVOFkfKMtNI7h-44" value="交易图建模" style="text;html=1;align=center;verticalAlign=middle;whiteSpace=wrap;rounded=0;fontSize=14;" vertex="1" parent="1">
          <mxGeometry x="160" y="302.5" width="80" height="30" as="geometry" />
        </mxCell>
        <mxCell id="XhqmdAoiVOFkfKMtNI7h-45" value="" style="shape=flexArrow;endArrow=classic;html=1;rounded=0;strokeColor=default;align=center;verticalAlign=middle;fontFamily=Helvetica;fontSize=11;fontColor=default;labelBackgroundColor=default;" edge="1" parent="1">
          <mxGeometry width="50" height="50" relative="1" as="geometry">
            <mxPoint x="318" y="355" as="sourcePoint" />
            <mxPoint x="268" y="355" as="targetPoint" />
          </mxGeometry>
        </mxCell>
      </root>
    </mxGraphModel>
  </diagram>
</mxfile>
